<svg class="brand-logo type-logo d-none d-xl-block" enable-background="new 0 0 1417.9 133.1" viewBox="0 0 1417.9 133.1" xmlns="http://www.w3.org/2000/svg"><g fill="#fff"><path d="m335.4 49.5h-23.8v12.7h21.7v16.8h-21.7v29.8h-19.7v-76h43.5z"></path><path d="m394 49.5h-23.9v12.7h21.7v16.8h-21.7v29.8h-19.7v-76h43.6z"></path><path d="m452.2 49.5h-23.5v12.7h22.2v16.8h-22.2v13.1h23.5v16.7h-43.3v-76h43.3z"></path><path d="m511.1 49.5h-23.4v12.7h22.2v16.8h-22.2v13.1h23.4v16.7h-43.2v-76h43.2z"></path><path d="m528.7 86c4.2 4 10.6 7.8 17.5 7.8 4 0 6.4-1.3 7.6-2.6 1.1-1.1 1.9-2.8 1.9-4.8 0-1.5-.6-3.2-2.2-4.6-1.9-1.7-4.9-2.5-9.8-4l-5.1-1.6c-3.2-1-7.9-2.7-11-6.2-3.9-4.2-4.3-9.6-4.3-13.5 0-9.3 3.7-15.1 7-18.4 3.9-3.9 10.3-7.2 19.5-7.2 7.5 0 16.3 2.4 23.5 6.2l-7.9 15.4c-5.9-4.7-10.4-5.1-13-5.1-1.9 0-4.6.4-6.5 2.3-1.1 1.1-1.9 2.4-1.9 4.1 0 1.4.2 2.4 1 3.4.6.7 1.9 2.1 6.6 3.4l6 1.8c4.8 1.5 9.8 3.2 13.8 7.5 3.9 4.1 4.9 8.3 4.9 13.6 0 6.9-1.7 13.7-7.2 19.2-6.5 6.5-14.4 7.8-22.5 7.8-4.8 0-9.3-.4-14.9-2.5-1.2-.4-6-2.3-11.5-6z"></path><path d="m605.3 61.2h28.5v-28.4h19.8v76h-19.8v-30.7h-28.5v30.7h-19.7v-76h19.7z"></path><path d="m1011.3 107.6 12.9-76.1h19.5l15.4 40.6 16.3-40.6h19.7l11.4 76.1h-19.7l-5.6-43.8-18.3 43.8h-7.9l-17.6-43.8-6.5 43.8z"></path><path d="m1138.8 66.4h6.6c2.1 0 5.9-.2 8.3-2.4 2.4-2.1 2.5-5.1 2.5-7 0-2.1-.2-4.8-2.3-6.8-2.3-2.4-5.9-2.7-8.4-2.7h-6.7zm0 16v25.2h-19.7v-76.1h31.5c6.6 0 13.5 1.3 19.3 6.8 5.9 5.7 7.1 12.1 7.1 18.5 0 6-.8 13.1-6.7 18.9s-13 6.6-18.9 6.6z"></path><path d="m1220 79.8-8.6-24.6-8.3 24.6zm5.2 15h-27.6l-5.1 12.8h-20.9l29.2-76.1h21.6l28.6 76.1h-21.1z"></path><path d="m1259.8 107.6v-76.1h19.7l36.4 46.6v-46.6h19.7v76.1h-19.7l-36.4-46.5v46.5z"></path><path d="m1369.7 71.1-27.5-39.6h23.6l14.4 20.8 13.8-20.8h23.9l-28.4 39.6v36.5h-19.8z"></path></g><path d="m37 96.1c-13.8-11.6-26.4-4.7-26.4-4.7-3.2 2.3-2.5 4.4 0 6.5l27.3 24.1c2.4 2.2 5.4 2.5 6.9-.9.1 0 6-13.3-7.8-25" fill="#8fab53"></path><path d="m47.1 57.5c-4.6-4.1-8.9-8-11.8-12.1-7.8-11.1-7.1-24.3 2.2-39.2.1-.2 0-.6-.2-.8-.1-.1-.3-.2-.5-.2-.1 0-.2 0-.2 0-12.3 7.2-41.7 30.9-30.2 55.2 4.1 8.6 13.9 13.3 24.4 18.2 16.2 7.6 32.9 15.5 26.3 39.4-.1.3.1.6.4.7.1 0 .2.1.3.1.2 0 .4-.1.5-.2 21.6-31.5 3.4-47.9-11.2-61.1" fill="#8fab53"></path><path d="m80.5 40.9c-.9-.6-1.9-1.2-3-1.9-9.8-6-26.3-16.2-21.8-38.3.1-.3-.2-.5-.4-.7-.1 0-.2 0-.2 0-.2 0-.4.1-.5.2-20.3 31.6-5 45.9 9.8 59.8 8.9 8.4 17.3 16.2 17.7 27.7.3 10.3-6.3 22.6-20.3 37.3-.2.2-.2.6 0 .8.1.2.3.3.6.3h.2c28.8-13 44.1-27.8 45.4-43.8 1.5-20.7-20.7-36.9-27.5-41.4" fill="#8fab53"></path><path d="m35.8 124.8-27.4-24.2c-2.5-2.2-5-3.1-6.9.5 0 0-6.5 12.4 6.8 24.6s27 5.7 27 5.7c3.7-1.9 2.9-4.5.5-6.6" fill="#8fab53"></path><g fill="#fff"><path d="m189.5 106.8c-7.9 2.9-12.2 3.8-17.1 3.8-13.2 0-23.1-5.2-29.4-11.4-7.4-7.4-11.5-17.8-11.5-27.7 0-10.8 4.7-21.1 11.5-28.1 6.7-6.8 16.9-11.9 28.7-11.9 3.6 0 9.6.6 17.8 3.9v23.6c-6.4-7.9-13.9-8.3-17.2-8.3-5.7 0-10 1.7-13.7 5-4.7 4.3-6.6 10.3-6.6 15.6 0 5.2 2.2 11.1 6.2 14.8 3.3 3.1 8.6 5.2 14.1 5.2 3 0 10.3-.3 17.2-8z"></path><path d="m225.2 56.3c-4.1 4-6 9.6-6 14.9 0 6.7 3.2 11.4 6 14.1 3.7 3.5 8.8 6.1 15.4 6.1 6.7 0 11.7-2.4 15.3-5.9 3.5-3.5 6.2-8.8 6.2-14.6 0-5.9-2.6-11.2-6.2-14.6-4.2-4-10-6-15.3-6-5.5-.1-11.3 1.9-15.4 6m45.4 43c-7.8 7.4-18.7 11.3-30 11.3s-22.2-3.9-30-11.3c-8.1-7.8-12-18.4-12-28.4 0-10.2 3.9-20.9 12-28.5 7.8-7.4 18.7-11.3 30-11.3s22.2 3.9 30 11.3c8.1 7.6 12 18.4 12 28.5 0 10-3.9 20.6-12 28.4"></path><path d="m689.5 56.3c-4.1 4-6 9.6-6 14.9 0 6.7 3.2 11.4 6 14.1 3.7 3.5 8.8 6.1 15.4 6.1 6.7 0 11.7-2.4 15.3-5.9 3.5-3.5 6.2-8.8 6.2-14.6 0-5.9-2.6-11.2-6.2-14.6-4.2-4-10-6-15.3-6-5.5-.1-11.3 1.9-15.4 6m45.4 43c-7.8 7.4-18.7 11.3-30 11.3s-22.2-3.9-30-11.3c-8.1-7.8-12-18.4-12-28.4 0-10.2 3.9-20.9 12-28.5 7.8-7.4 18.7-11.3 30-11.3s22.2 3.9 30 11.3c8.1 7.6 12 18.4 12 28.5 0 10-3.9 20.6-12 28.4"></path><path d="m775.9 67.7h6.6c2 0 5.9-.2 8.3-2.4 2.4-2.1 2.5-5.1 2.5-7 0-2.1-.2-4.8-2.3-6.8-2.3-2.4-5.9-2.7-8.4-2.7h-6.7zm0 15.9v25.2h-19.7v-76h31.5c6.6 0 13.5 1.3 19.3 6.8 5.9 5.7 7.1 12.1 7.1 18.5 0 6-.8 13.1-6.7 18.9s-13 6.6-18.9 6.6z"></path><path d="m910.6 105.6c-7.9 2.9-12.2 3.8-17.1 3.8-13.2 0-23.2-5.2-29.4-11.4-7.4-7.4-11.5-17.8-11.5-27.7 0-10.8 4.7-21.1 11.5-28.1 6.7-6.8 16.9-11.9 28.7-11.9 3.7 0 9.6.6 17.8 3.9v23.6c-6.4-7.9-13.9-8.3-17.2-8.3-5.7 0-10 1.7-13.7 5-4.7 4.3-6.6 10.3-6.6 15.6 0 5.2 2.2 11.1 6.2 14.8 3.3 3.1 8.5 5.2 14.1 5.2 3 0 10.3-.3 17.2-8z"></path><path d="m946.3 55c-4.1 4-6 9.6-6 14.9 0 6.7 3.2 11.4 6 14.1 3.7 3.5 8.8 6.1 15.4 6.1 6.7 0 11.7-2.4 15.3-5.9 3.5-3.5 6.2-8.8 6.2-14.6 0-5.9-2.6-11.2-6.2-14.6-4.2-4-10-6-15.3-6-5.5 0-11.3 1.9-15.4 6m45.4 43c-7.8 7.4-18.7 11.3-30 11.3s-22.2-3.9-30-11.3c-8.1-7.8-12-18.4-12-28.4 0-10.2 3.9-20.9 12-28.5 7.8-7.4 18.7-11.3 30-11.3s22.2 3.9 30 11.3c8.1 7.6 12 18.4 12 28.5s-3.9 20.7-12 28.4"></path></g></svg>